<svg xmlns="http://www.w3.org/2000/svg" viewBox="0 0 449 1.2">
  <defs>
    <style>
      .cls-1 {
        fill: blue;
      }
    </style>
  </defs>
  <g id="Слой_2" data-name="Слой 2">
    <g id="Layer_1" data-name="Layer 1">
      <g>
        <polygon class="cls-1" points="0 0 3.85 0.01 3.85 1.2 0 1.2 0 0"/>
        <polygon class="cls-1" points="11.59 0.01 19.33 0.03 19.33 1.18 11.59 1.19 11.59 0.01"/>
        <polygon class="cls-1" points="27.07 0.04 34.81 0.05 34.81 1.16 27.07 1.17 27.07 0.04"/>
        <polygon class="cls-1" points="42.56 0.06 50.3 0.07 50.3 1.14 42.56 1.15 42.56 0.06"/>
        <polygon class="cls-1" points="58.04 0.08 65.78 0.09 65.78 1.12 58.04 1.13 58.04 0.08"/>
        <polygon class="cls-1" points="73.53 0.1 81.27 0.11 81.27 1.09 73.53 1.11 73.53 0.1"/>
        <polygon class="cls-1" points="89.01 0.12 96.75 0.13 96.75 1.07 89.01 1.08 89.01 0.12"/>
        <polygon class="cls-1" points="104.5 0.14 112.24 0.15 112.24 1.05 104.5 1.06 104.5 0.14"/>
        <polygon class="cls-1" points="119.98 0.16 127.72 0.17 127.72 1.03 119.98 1.04 119.98 0.16"/>
        <polygon class="cls-1" points="135.46 0.18 143.21 0.19 143.21 1.01 135.46 1.02 135.46 0.18"/>
        <polygon class="cls-1" points="150.95 0.2 158.69 0.21 158.69 0.99 150.95 1 150.95 0.2"/>
        <polygon class="cls-1" points="166.43 0.22 174.18 0.23 174.18 0.97 166.43 0.98 166.43 0.22"/>
        <polygon class="cls-1" points="181.92 0.24 189.66 0.25 189.66 0.95 181.92 0.96 181.92 0.24"/>
        <polygon class="cls-1" points="197.4 0.27 205.15 0.28 205.15 0.93 197.4 0.94 197.4 0.27"/>
        <polygon class="cls-1" points="212.89 0.28 220.63 0.3 220.63 0.91 212.89 0.92 212.89 0.28"/>
        <polygon class="cls-1" points="228.37 0.31 236.11 0.32 236.11 0.89 228.37 0.9 228.37 0.31"/>
        <polygon class="cls-1" points="243.85 0.33 251.6 0.34 251.6 0.87 243.85 0.88 243.85 0.33"/>
        <polygon class="cls-1" points="259.34 0.35 267.08 0.36 267.08 0.85 259.34 0.86 259.34 0.35"/>
        <polygon class="cls-1" points="274.82 0.37 282.57 0.38 282.57 0.82 274.82 0.84 274.82 0.37"/>
        <polygon class="cls-1" points="290.31 0.39 298.05 0.4 298.05 0.81 290.31 0.81 290.31 0.39"/>
        <polygon class="cls-1" points="305.79 0.41 313.54 0.42 313.54 0.78 305.79 0.79 305.79 0.41"/>
        <polygon class="cls-1" points="321.28 0.43 329.02 0.44 329.02 0.76 321.28 0.77 321.28 0.43"/>
        <polygon class="cls-1" points="336.76 0.45 344.5 0.46 344.5 0.74 336.76 0.75 336.76 0.45"/>
        <polygon class="cls-1" points="352.25 0.47 359.99 0.48 359.99 0.72 352.25 0.73 352.25 0.47"/>
        <polygon class="cls-1" points="367.73 0.49 375.47 0.5 375.47 0.7 367.73 0.71 367.73 0.49"/>
        <polygon class="cls-1" points="383.22 0.51 390.96 0.52 390.96 0.68 383.22 0.69 383.22 0.51"/>
        <polygon class="cls-1" points="398.7 0.54 406.44 0.55 406.44 0.66 398.7 0.67 398.7 0.54"/>
        <polygon class="cls-1" points="414.19 0.56 421.93 0.57 421.93 0.64 414.19 0.65 414.19 0.56"/>
        <polygon class="cls-1" points="429.67 0.58 437.41 0.59 437.41 0.62 429.67 0.63 429.67 0.58"/>
        <polygon class="cls-1" points="445.15 0.6 449 0.6 445.15 0.61 445.15 0.6"/>
      </g>
    </g>
  </g>
</svg>
