<?xml version="1.0" standalone="no"?>
<!DOCTYPE svg PUBLIC "-//W3C//DTD SVG 20010904//EN"
 "http://www.w3.org/TR/2001/REC-SVG-20010904/DTD/svg10.dtd">
<svg version="1.0" xmlns="http://www.w3.org/2000/svg"
 width="442.000000pt" height="53.000000pt" viewBox="0 0 442.000000 53.000000"
 preserveAspectRatio="xMidYMid meet">

<g transform="translate(0.000000,53.000000) scale(0.100000,-0.100000)"
fill="#000000" stroke="none">
<path d="M66 318 c-10 -51 -20 -106 -23 -121 l-6 -28 84 3 c70 3 84 6 87 21 3
15 -5 17 -57 17 -59 0 -61 1 -56 23 8 34 35 168 35 173 0 2 -10 4 -23 4 -21 0
-25 -8 -41 -92z"/>
<path d="M1187 390 c-4 -16 0 -20 18 -20 14 0 25 7 28 20 4 16 0 20 -18 20
-14 0 -25 -7 -28 -20z"/>
<path d="M2376 370 c-6 -38 -7 -39 -30 -28 -36 16 -74 2 -96 -35 -26 -42 -26
-91 0 -117 22 -22 42 -25 71 -10 13 7 19 7 19 0 0 -21 40 -10 45 13 14 64 45
207 45 212 0 3 -11 5 -24 5 -20 0 -24 -6 -30 -40z m-28 -84 c5 -43 -6 -74 -29
-81 -27 -9 -42 7 -41 44 1 45 20 73 45 69 16 -2 23 -11 25 -32z"/>
<path d="M2660 353 c-7 -32 -18 -86 -25 -120 l-13 -63 24 0 c13 0 24 2 24 4 0
8 41 202 46 219 4 13 0 17 -20 17 -22 0 -26 -6 -36 -57z"/>
<path d="M3377 390 c-4 -16 0 -20 18 -20 14 0 25 7 28 20 4 16 0 20 -18 20
-14 0 -25 -7 -28 -20z"/>
<path d="M3493 388 c-13 -6 -23 -17 -23 -25 0 -7 -6 -13 -14 -13 -8 0 -16 -7
-20 -15 -3 -9 0 -15 10 -15 10 0 14 -6 10 -15 -3 -8 -8 -38 -12 -66 -5 -38 -3
-53 7 -60 23 -14 59 -11 59 6 0 8 -7 15 -16 15 -10 0 -14 6 -11 14 3 7 9 34
12 60 4 27 13 46 20 46 7 0 15 7 19 15 3 9 0 15 -8 15 -9 0 -12 8 -8 25 5 28
5 28 -25 13z"/>
<path d="M4363 388 c-13 -6 -23 -17 -23 -25 0 -7 -6 -13 -14 -13 -8 0 -16 -7
-20 -15 -3 -9 0 -15 10 -15 10 0 14 -6 10 -15 -3 -8 -8 -38 -12 -66 -5 -38 -3
-53 7 -60 23 -14 59 -11 59 6 0 8 -7 15 -16 15 -10 0 -14 6 -11 14 3 7 9 34
12 60 4 27 13 46 20 46 7 0 15 7 19 15 3 9 0 15 -8 15 -9 0 -12 8 -8 25 5 28
5 28 -25 13z"/>
<path d="M290 337 c-52 -26 -66 -102 -25 -142 42 -43 112 -27 140 30 21 46 19
72 -10 100 -27 28 -66 32 -105 12z m64 -23 c40 -15 5 -118 -37 -112 -29 4 -37
71 -11 99 19 21 24 22 48 13z"/>
<path d="M475 338 c-2 -7 -9 -40 -15 -73 -6 -33 -14 -68 -16 -77 -4 -14 1 -18
19 -18 21 0 26 6 31 38 11 63 26 90 57 101 16 5 29 17 29 25 0 20 -19 20 -48
1 -20 -14 -21 -14 -16 0 4 11 0 15 -15 15 -12 0 -23 -6 -26 -12z"/>
<path d="M634 340 c-88 -35 -59 -182 33 -167 19 3 41 12 50 18 12 11 12 14 -2
22 -11 6 -21 5 -28 -2 -17 -17 -45 -13 -57 9 -10 19 -8 20 50 20 l60 0 0 35
c0 60 -47 89 -106 65z m60 -36 c11 -29 6 -34 -29 -34 -38 0 -40 2 -25 31 13
23 46 25 54 3z"/>
<path d="M789 348 c0 -2 -9 -42 -18 -90 l-18 -88 22 0 c19 0 24 8 34 60 11 55
31 90 51 90 18 0 20 -20 6 -84 l-14 -66 24 0 c20 0 24 7 35 60 12 63 41 102
60 83 8 -8 7 -29 -3 -77 l-15 -66 23 0 c16 0 25 7 29 23 29 128 28 143 -10
153 -13 3 -32 1 -43 -5 -15 -8 -28 -8 -46 1 -20 8 -32 8 -51 0 -15 -7 -25 -8
-25 -2 0 8 -38 15 -41 8z"/>
<path d="M1175 328 c-3 -13 -11 -53 -19 -90 l-14 -68 23 0 c24 0 32 23 51 140
6 36 4 40 -15 40 -13 0 -22 -8 -26 -22z"/>
<path d="M1265 337 c-2 -7 -11 -52 -20 -102 -9 -50 -19 -100 -22 -112 -4 -19
-1 -23 20 -23 22 0 26 6 31 45 7 42 8 44 31 33 53 -24 115 28 115 98 0 52 -20
68 -89 70 -41 2 -64 -2 -66 -9z m103 -63 c3 -43 -15 -74 -44 -74 -33 0 -34 91
-2 112 27 17 43 3 46 -38z"/>
<path d="M1493 340 c-23 -10 -37 -39 -28 -62 4 -9 24 -23 47 -31 24 -10 38
-21 36 -29 -7 -20 -37 -22 -57 -4 -17 16 -51 13 -51 -4 0 -13 26 -30 58 -36
42 -9 91 12 98 42 8 30 -8 50 -52 64 -19 6 -34 18 -34 26 0 17 41 19 57 3 7
-7 17 -8 28 -1 16 8 15 11 -6 26 -25 17 -61 20 -96 6z"/>
<path d="M1645 275 c-14 -62 -15 -78 -4 -91 13 -16 44 -15 83 1 14 6 17 5 12
-3 -5 -8 1 -12 17 -12 19 0 26 7 30 28 3 15 12 55 21 90 l14 62 -24 0 c-18 0
-25 -7 -30 -27 -21 -98 -49 -142 -74 -117 -8 8 -7 28 4 72 20 76 20 72 -8 72
-22 0 -26 -7 -41 -75z"/>
<path d="M1869 348 c0 -2 -9 -42 -18 -90 l-18 -88 22 0 c19 0 24 8 34 60 11
55 31 90 51 90 18 0 20 -20 6 -84 l-14 -66 24 0 c20 0 24 7 35 60 12 63 41
102 60 83 8 -8 7 -29 -3 -77 l-15 -66 23 0 c16 0 25 7 29 23 29 128 28 143
-10 153 -13 3 -32 1 -43 -5 -15 -8 -28 -8 -46 1 -20 8 -32 8 -51 0 -15 -7 -25
-8 -25 -2 0 8 -38 15 -41 8z"/>
<path d="M2480 337 c-52 -26 -66 -102 -25 -142 42 -43 112 -27 140 30 21 46
19 72 -10 100 -27 28 -66 32 -105 12z m64 -23 c40 -15 5 -118 -37 -112 -29 4
-37 71 -11 99 19 21 24 22 48 13z"/>
<path d="M2780 337 c-52 -26 -66 -102 -25 -142 42 -43 112 -27 140 30 21 46
19 72 -10 100 -27 28 -66 32 -105 12z m64 -23 c40 -15 5 -118 -37 -112 -29 4
-37 71 -11 99 19 21 24 22 48 13z"/>
<path d="M2955 338 c-2 -7 -9 -40 -15 -73 -6 -33 -14 -68 -16 -77 -4 -14 1
-18 19 -18 21 0 26 6 31 38 11 63 26 90 57 101 16 5 29 17 29 25 0 20 -19 20
-48 1 -20 -14 -21 -14 -16 0 4 11 0 15 -15 15 -12 0 -23 -6 -26 -12z"/>
<path d="M3193 340 c-23 -10 -37 -39 -28 -62 4 -9 24 -23 47 -31 24 -10 38
-21 36 -29 -7 -20 -37 -22 -57 -4 -17 16 -51 13 -51 -4 0 -13 26 -30 58 -36
42 -9 91 12 98 42 8 30 -8 50 -52 64 -19 6 -34 18 -34 26 0 17 41 19 57 3 7
-7 17 -8 28 -1 16 8 15 11 -6 26 -25 17 -61 20 -96 6z"/>
<path d="M3365 328 c-3 -13 -11 -53 -19 -90 l-14 -68 23 0 c24 0 32 23 51 140
6 36 4 40 -15 40 -13 0 -22 -8 -26 -22z"/>
<path d="M3672 334 c-12 -8 -22 -19 -22 -25 0 -13 34 -11 47 2 15 15 43 4 43
-15 0 -9 -12 -18 -27 -21 -67 -14 -78 -20 -81 -48 -5 -43 11 -55 77 -54 l59 0
6 53 c3 29 9 59 12 67 8 22 -31 57 -64 57 -15 0 -38 -7 -50 -16z m56 -100 c-5
-26 -35 -41 -50 -26 -11 11 -9 16 6 28 26 19 48 18 44 -2z"/>
<path d="M3849 348 c0 -2 -9 -42 -18 -90 l-18 -88 22 0 c19 0 24 8 34 60 11
55 31 90 51 90 18 0 20 -20 6 -84 l-14 -66 24 0 c20 0 24 7 35 60 12 63 41
102 60 83 8 -8 7 -29 -3 -77 l-15 -66 23 0 c16 0 25 7 29 23 29 128 28 143
-10 153 -13 3 -32 1 -43 -5 -15 -8 -28 -8 -46 1 -20 8 -32 8 -51 0 -15 -7 -25
-8 -25 -2 0 8 -38 15 -41 8z"/>
<path d="M4174 340 c-88 -35 -59 -182 33 -167 19 3 41 12 50 18 12 11 12 14
-2 22 -11 6 -21 5 -28 -2 -17 -17 -45 -13 -57 9 -10 19 -8 20 50 20 l60 0 0
35 c0 60 -47 89 -106 65z m60 -36 c11 -29 6 -34 -29 -34 -38 0 -40 2 -25 31
13 23 46 25 54 3z"/>
</g>
</svg>
