<?xml version="1.0" standalone="no"?>
<!DOCTYPE svg PUBLIC "-//W3C//DTD SVG 20010904//EN"
 "http://www.w3.org/TR/2001/REC-SVG-20010904/DTD/svg10.dtd">
<svg version="1.0" xmlns="http://www.w3.org/2000/svg"
 width="1069.000000pt" height="330.000000pt" viewBox="0 0 1069.000000 330.000000"
 preserveAspectRatio="xMidYMid meet">

<g transform="translate(0.000000,330.000000) scale(0.100000,-0.100000)"
fill="#000000" stroke="none">
<path d="M1265 2995 c-295 -41 -550 -165 -765 -371 -204 -196 -341 -448 -397
-731 -25 -131 -23 -386 5 -515 94 -431 369 -782 753 -962 52 -24 105 -47 117
-51 22 -6 23 -5 17 17 -10 31 -187 383 -242 479 -164 289 -285 759 -270 1053
8 157 37 257 125 431 108 217 322 418 505 477 78 25 284 35 411 19 107 -13
223 -65 302 -135 54 -48 123 -164 149 -254 26 -86 116 -204 200 -262 22 -15
101 -58 175 -95 151 -77 239 -129 258 -153 28 -37 -1 -159 -40 -163 -7 -1 -69
-3 -138 -5 -138 -3 -237 10 -422 57 -132 33 -161 35 -236 15 -44 -12 -280 -52
-496 -84 -63 -9 -101 -53 -116 -134 -27 -143 62 -401 194 -563 165 -203 200
-246 341 -413 83 -98 166 -201 185 -230 19 -28 39 -52 44 -52 5 0 52 20 104
45 392 186 673 550 759 982 23 120 23 376 0 496 -142 717 -811 1202 -1522
1102z m1335 -1225 c-11 -21 -50 -35 -72 -27 -7 3 -1 6 15 6 15 1 35 10 44 21
22 25 27 25 13 0z"/>
<path d="M1044 2744 c-18 -14 -18 -14 6 -3 31 14 36 19 24 19 -6 0 -19 -7 -30
-16z"/>
<path d="M995 2740 c-3 -6 1 -7 9 -4 18 7 21 14 7 14 -6 0 -13 -4 -16 -10z"/>
<path d="M929 2693 c-13 -16 -12 -17 4 -4 9 7 17 15 17 17 0 8 -8 3 -21 -13z"/>
<path d="M1797 2673 c23 -21 58 -68 78 -105 20 -38 39 -68 41 -68 2 0 -13 35
-35 78 -31 61 -48 83 -82 105 l-44 27 42 -37z"/>
<path d="M1433 2459 c-87 -25 -98 -137 -17 -190 107 -70 220 63 132 155 -37
38 -68 48 -115 35z m92 -39 c10 -11 15 -23 12 -27 -8 -7 -47 25 -47 39 0 14
16 9 35 -12z m-67 -29 c-2 -20 -9 -27 -29 -29 -36 -4 -48 27 -19 50 28 23 52
13 48 -21z m4 -77 c5 -3 8 -12 8 -20 0 -19 6 -18 47 7 43 27 53 18 20 -15 -24
-24 -96 -39 -83 -17 3 5 -8 11 -24 14 -16 4 -34 16 -41 28 -11 21 -10 21 27
14 22 -4 42 -9 46 -11z"/>
<path d="M1861 2422 l-33 -28 -3 -100 c-2 -94 -4 -107 -40 -182 -34 -73 -37
-87 -32 -135 l7 -54 -63 -16 c-41 -11 -48 -15 -22 -11 22 3 49 7 60 9 11 3 7
-2 -10 -11 -26 -13 -27 -14 -5 -9 86 19 108 17 291 -28 179 -45 279 -65 269
-55 -3 3 -113 36 -245 73 -220 62 -279 84 -263 101 7 6 247 -52 468 -112 129
-36 240 -51 283 -40 39 9 87 55 87 81 0 24 -12 38 -45 49 -14 4 -11 -1 10 -18
24 -20 28 -27 18 -37 -11 -11 -13 -11 -13 0 0 14 -39 50 -55 51 -6 0 -28 12
-50 27 -22 16 -94 55 -160 89 -66 33 -119 66 -118 72 2 6 -19 26 -45 45 -62
46 -90 77 -150 164 -27 40 -52 69 -56 66 -3 -4 -13 3 -22 15 -19 28 -23 28
-63 -6z m102 -72 c3 0 4 7 1 15 -4 8 -4 15 0 15 3 0 16 -24 30 -52 50 -109
126 -175 339 -292 161 -88 214 -124 223 -150 19 -59 -118 -60 -311 -2 -151 44
-410 106 -452 108 -41 2 -41 11 -2 84 44 84 59 152 52 230 -5 58 -4 67 17 89
l24 25 36 -35 c20 -19 39 -35 43 -35z m207 -194 c13 -9 20 -16 15 -16 -16 1
-83 55 -107 86 -16 21 -9 18 23 -12 24 -23 55 -48 69 -58z"/>
<path d="M1924 2166 c3 -11 6 -25 6 -30 0 -4 11 -6 25 -4 14 3 23 1 22 -6 -3
-15 44 -9 61 7 20 20 -14 43 -71 50 -46 4 -48 4 -43 -17z"/>
<path d="M1228 2393 c7 -3 16 -2 19 1 4 3 -2 6 -13 5 -11 0 -14 -3 -6 -6z"/>
<path d="M532 2070 c0 -14 2 -19 5 -12 2 6 2 18 0 25 -3 6 -5 1 -5 -13z"/>
<path d="M521 2014 c0 -11 3 -14 6 -6 3 7 2 16 -1 19 -3 4 -6 -2 -5 -13z"/>
<path d="M1538 1873 c6 -2 18 -2 25 0 6 3 1 5 -13 5 -14 0 -19 -2 -12 -5z"/>
<path d="M1450 1860 c-20 -6 -21 -8 -5 -8 11 0 29 3 40 8 25 11 -1 11 -35 0z"/>
<path d="M1488 1843 c7 -3 16 -2 19 1 4 3 -2 6 -13 5 -11 0 -14 -3 -6 -6z"/>
<path d="M1378 1823 c7 -3 16 -2 19 1 4 3 -2 6 -13 5 -11 0 -14 -3 -6 -6z"/>
<path d="M1318 1813 c7 -3 16 -2 19 1 4 3 -2 6 -13 5 -11 0 -14 -3 -6 -6z"/>
<path d="M1258 1803 c6 -2 18 -2 25 0 6 3 1 5 -13 5 -14 0 -19 -2 -12 -5z"/>
<path d="M554 1640 c0 -47 3 -74 6 -60 l7 25 5 -25 c3 -14 3 1 1 33 -9 102
-19 117 -19 27z"/>
<path d="M566 1505 c3 -22 16 -76 30 -120 13 -44 21 -64 18 -45 -4 19 -8 49
-8 65 -3 56 -18 125 -26 120 -5 -3 -11 1 -14 7 -3 7 -3 -5 0 -27z"/>
<path d="M621 1284 c0 -11 3 -14 6 -6 3 7 2 16 -1 19 -3 4 -6 -2 -5 -13z"/>
<path d="M701 1060 c7 -14 14 -30 15 -37 1 -6 26 -58 55 -115 29 -57 71 -138
93 -181 22 -44 42 -74 44 -68 2 6 8 9 13 5 10 -6 -18 61 -34 83 -5 7 -14 10
-20 6 -6 -4 -8 0 -4 11 8 19 -26 80 -38 68 -5 -4 -5 -2 -1 5 7 12 -79 175 -95
181 -5 2 -7 7 -4 12 3 4 -4 19 -16 31 l-20 24 12 -25z m157 -285 c-3 -3 -9 2
-12 12 -6 14 -5 15 5 6 7 -7 10 -15 7 -18z m51 -100 c0 -5 -8 6 -19 25 -11 19
-19 40 -19 45 0 6 8 -6 19 -25 11 -19 19 -39 19 -45z"/>
<path d="M1530 795 c0 -3 12 -18 26 -33 l26 -27 -18 33 c-16 28 -34 42 -34 27z"/>
<path d="M1705 570 c10 -11 20 -20 23 -20 3 0 -3 9 -13 20 -10 11 -20 20 -23
20 -3 0 3 -9 13 -20z"/>
<path d="M940 578 c0 -4 12 -32 27 -63 18 -36 30 -50 35 -42 8 12 13 -11 9
-42 -2 -7 2 -10 7 -7 6 3 18 -14 28 -39 9 -25 19 -43 22 -41 5 6 -65 176 -80
191 -5 6 -4 -3 1 -18 19 -49 11 -44 -19 13 -16 30 -29 52 -30 48z"/>
<path d="M1730 536 c0 -2 8 -10 18 -17 15 -13 16 -12 3 4 -13 16 -21 21 -21
13z"/>
<path d="M1770 495 c0 -2 23 -34 50 -71 63 -84 65 -77 4 11 -41 59 -54 73 -54
60z"/>
</g>
</svg>
